<svg width="16" height="16" viewBox="0 0 16 16" fill="none" xmlns="http://www.w3.org/2000/svg">
<path fill-rule="evenodd" clip-rule="evenodd" d="M5.93929 8.64642L3.69205 7.89734L3.69205 7.89734L3.69204 7.89734C1.33883 7.11293 0.162231 6.72073 0.162231 5.99997C0.162231 5.27921 1.33884 4.88701 3.69205 4.10261L12.2052 1.26488C13.861 0.712955 14.6889 0.43699 15.1259 0.874006C15.5629 1.31102 15.287 2.13892 14.735 3.79471L11.8973 12.3079L11.8973 12.3079L11.8973 12.3079C11.1129 14.6611 10.7207 15.8377 9.99995 15.8377C9.27919 15.8377 8.88699 14.6611 8.10259 12.3079L7.35351 10.0606L11.7071 5.70708C12.0976 5.31656 12.0976 4.68339 11.7071 4.29287C11.3165 3.90234 10.6834 3.90234 10.2928 4.29287L5.93929 8.64642Z" fill="#444444"/>
</svg>
